# xmcd
#
# Track frame offsets: 
#        150
#        30492
#        64385
#        98230
#        124777
#
# Disc length: 2299 seconds
#
# Revision: 1
# Processed by: cddbd v1.5.2PL0 Copyright (c) Steve Scherf et al.
# Submitted via: ExactAudioCopy v0.95b4
#
DISCID=3e08f905
DTITLE=Thad Jones - The Magnificent Thad Jones
DYEAR=1956
DGENRE=Jazz
TTITLE0=April In Paris
TTITLE1=Billie-Doo
TTITLE2=If I Love Again
TTITLE3=If Someone Had Told Me
TTITLE4=Thedia
EXTD=YEAR: 1956
EXTT0=
EXTT1=
EXTT2=
EXTT3=
EXTT4=
PLAYORDER=
